<?xml version="1.0" encoding="UTF-8" standalone="no"?>
<svg
   xmlns:dc="http://purl.org/dc/elements/1.1/"
   xmlns:cc="http://creativecommons.org/ns#"
   xmlns:rdf="http://www.w3.org/1999/02/22-rdf-syntax-ns#"
   xmlns:svg="http://www.w3.org/2000/svg"
   xmlns="http://www.w3.org/2000/svg"
   xmlns:sodipodi="http://sodipodi.sourceforge.net/DTD/sodipodi-0.dtd"
   xmlns:inkscape="http://www.inkscape.org/namespaces/inkscape"
   version="1.1"
   id="svg2"
   xml:space="preserve"
   width="816"
   height="1056"
   viewBox="0 0 816 1056"
   sodipodi:docname="scmoneyclublogo.ai"><metadata
     id="metadata8"><rdf:RDF><cc:Work
         rdf:about=""><dc:format>image/svg+xml</dc:format><dc:type
           rdf:resource="http://purl.org/dc/dcmitype/StillImage" /></cc:Work></rdf:RDF></metadata><defs
     id="defs6"><clipPath
       clipPathUnits="userSpaceOnUse"
       id="clipPath18"><path
         d="M 0,792 H 612 V 0 H 0 Z"
         id="path16" /></clipPath></defs><sodipodi:namedview
     pagecolor="#ffffff"
     bordercolor="#666666"
     borderopacity="1"
     objecttolerance="10"
     gridtolerance="10"
     guidetolerance="10"
     inkscape:pageopacity="0"
     inkscape:pageshadow="2"
     inkscape:window-width="640"
     inkscape:window-height="480"
     id="namedview4" /><g
     id="g10"
     inkscape:groupmode="layer"
     inkscape:label="scmoneyclublogo"
     transform="matrix(1.3333333,0,0,-1.3333333,0,1056)"><g
       id="g12"><g
         id="g14"
         clip-path="url(#clipPath18)"><g
           id="g20"
           transform="translate(323.1883,536.0816)"><path
             d="m 0,0 91.03,-54.125 v -71.428 l -28.571,16.017 0.432,40.26 -74.458,43.723 -64.503,-34.632 167.1,-98.269 v -16.45 L 0.939,-226.732 -0.409,-329.367 c 0,0 75.855,-5.277 146.417,70.481 50.65,55.411 55.845,115.584 55.412,131.601 -29.005,-0.433 -44.589,-0.433 -44.589,-0.433 l -1.299,-83.549 -126.84,-72.295 -0.433,30.736 99.009,57.061 0.894,95.702 73.281,-0.224 c 0,0 2.073,70.212 -60.759,135.951 13.192,6.708 17.217,22.584 17.217,22.584 0,0 74.684,-57.913 71.553,-183.131 -3.13,-125.217 -105.743,-228.522 -244.052,-232.546 -42.83,0 -83.526,12.969 -94.929,19.453 -21.131,-15.205 -53.888,-4.248 -53.665,27.727 0.447,37.006 63.95,45.95 65.739,-3.578 32.534,-15.652 69.648,-15.75 69.648,-15.75 l 0.563,28.719 -155.403,89.665 v 55.677 l 27.279,-0.448 -0.223,-40.248 127.006,-72.447 1.118,42.261 -90.559,52.77 0.447,71.329 26.832,-17.217 v -38.236 l 76.147,-44.945 63.381,36.448 -167.702,96.596 -0.223,16.323 91.9,52.994 V 101.85 c 0,0 -80.72,-3.13 -139.975,-63.727 -59.254,-60.596 -62.385,-137.068 -62.385,-137.068 l 46.733,-0.894 -0.447,83.403 127.453,73.342 0.224,-31.975 -98.162,-57.242 -1.118,-96.373 -74.683,0.894 c 0,0 2.46,-79.826 61.714,-137.292 -15.205,-8.496 -17.888,-21.018 -17.888,-21.018 0,0 -74.236,66.533 -72,172.235 2.236,105.703 86.087,240.759 238.584,242.771 62.609,0 102.261,-19.379 102.261,-19.379 0,0 26.981,19.379 46.658,-7.453 C 148.957,75.838 117.876,41.477 91.939,53.105 66.001,64.732 70.696,84.931 70.696,84.931 c 0,0 -42.944,16.248 -69.77,16.248 V 72.782 l 154.963,-89.441 -0.895,-55.23 -27.055,-0.447 -0.224,39.801 L 0.926,40.359 Z"
             style="fill:#ffffff;fill-opacity:1;fill-rule:nonzero;stroke:none"
             id="path22" /></g></g></g></g></svg>
